:SAMPLES-PER-SECOND 30
:FULLY-SPECIFIED
:DEGREES
208
root  -79.0365 40.0895 -3.83294 -2.81454 -45.4247 4.86923
RightUpLeg  -15.7883 10.1997 -9.52575
RightLeg  18.7981 14.5584 3.27869
RightFoot  -7.35476 -0.19025 4.01557
RightToes  -3.0268e-009 0 -3.6325e-017
Spine  8.32294 -0.196352 1.89137
Spine1  5.34109 0.174178 -1.28255
HEad  -15.4145 4.96108 1.26142
LeftShoulder1  -0.109505 3.78078 -33.1602
LeftArm  18.1404 -11.0773 -54.1009
LeftForeArm  22.8286 -25.4214 -4.26261
LeftHand  -0.0595868 9.9412 -0.142012
RightShoulder  -1.14442 -6.55378 30.9711
RightArm  35.4877 -9.22447 39.8795
RightForeArm  9.71554 24.9355 4.82939
RightHand  -0.0233227 2.20904 -0.500362
LeftUpLeg  -15.0162 -22.7234 2.15638
LeftLeg  17.9684 -18.2851 -6.21709
LeftFoot  -7.15718 0.0954958 -1.45586
LeftToes  2.52475e-009 -1.26109e-010 3.16044e-011
209
root  -79.5613 40.1299 -4.44609 -1.1254 -39.3724 3.80234
RightUpLeg  -15.3693 2.96899 -7.69473
RightLeg  18.7028 15.2777 3.32688
RightFoot  -7.43465 -0.165643 3.37583
RightToes  -3.0268e-009 0 -3.6325e-017
Spine  8.82885 0.0448662 2.68385
Spine1  4.49868 0.2665 -0.581658
HEad  -15.1729 5.1198 0.732461
LeftShoulder1  -0.255248 4.14332 -33.6621
LeftArm  17.0845 -10.9435 -53.5131
LeftForeArm  22.6934 -21.807 -4.15328
LeftHand  -0.0250437 9.50691 0.707938
RightShoulder  -0.990405 -6.18632 30.3645
RightArm  37.5862 -8.45603 38.7983
RightForeArm  6.63727 24.5609 4.90675
RightHand  -0.130236 3.10692 -2.02999
LeftUpLeg  -16.6993 -20.6073 2.91022
LeftLeg  17.9715 -12.008 -3.9788
LeftFoot  -7.04253 0.156892 -3.0602
LeftToes  2.52475e-009 -1.26109e-010 3.16044e-011
210
root  -80.1869 40.2469 -5.05084 0.368378 -32.6987 2.7168
RightUpLeg  -14.4219 -2.12911 -5.85693
RightLeg  17.468 13.5928 2.52004
RightFoot  -7.21027 -0.158481 3.03745
RightToes  -3.0268e-009 0 -3.6325e-017
Spine  8.72881 0.0738497 3.44993
Spine1  4.23884 0.335423 -0.644147
HEad  -15.1711 4.97774 -0.133023
LeftShoulder1  -0.122712 3.8215 -32.6011
LeftArm  13.2576 -10.2016 -52.9036
LeftForeArm  24.3158 -19.333 -5.37969
LeftHand  -0.0374992 9.57286 0.3939
RightShoulder  -1.02946 -6.24951 30.9328
RightArm  39.2139 -7.77485 37.6623
RightForeArm  5.01929 23.6657 4.82725
RightHand  -0.0811497 2.99618 -1.34787
LeftUpLeg  -18.0862 -14.4324 2.51114
LeftLeg  19.8927 -4.35471 -1.42186
LeftFoot  -6.3431 0.129867 -2.04775
LeftToes  2.52475e-009 -1.26109e-010 3.16044e-011
211
root  -80.8222 40.3496 -5.57803 1.11475 -25.5411 2.40341
RightUpLeg  -13.5798 -6.21357 -5.06239
RightLeg  16.7748 10.4765 2.14363
RightFoot  -7.2241 -0.123813 2.07693
RightToes  -3.0268e-009 0 -3.6325e-017
Spine  8.55595 0.10233 3.05555
Spine1  4.06604 0.166739 0.192837
HEad  -14.9901 3.48275 -1.516
LeftShoulder1  -0.275432 4.21526 -32.5969
LeftArm  11.3416 -10.6873 -51.5222
LeftForeArm  26.2751 -17.2568 -6.60989
LeftHand  -0.0392682 8.92487 0.309757
RightShoulder  -1.04928 -6.29395 31.0479
RightArm  39.9995 -7.75508 37.5536
RightForeArm  3.62769 21.9605 4.95181
RightHand  -0.0868391 2.37505 -1.48453
LeftUpLeg  -18.6242 -8.51738 0.925008
LeftLeg  22.5547 -0.462374 0.110224
LeftFoot  -6.89977 0.0218685 0.472642
LeftToes  2.52475e-009 -1.26109e-010 3.16044e-011
212
root  -81.5109 40.4027 -6.00814 1.64017 -18.0056 1.91934
RightUpLeg  -12.5398 -9.06154 -4.32204
RightLeg  16.3306 5.82172 1.79475
RightFoot  -7.60134 -0.0948569 1.31834
RightToes  -3.0268e-009 0 -3.6325e-017
Spine  8.4705 0.0368057 3.10238
Spine1  3.73791 -0.0129137 0.870965
HEad  -14.4401 1.45601 -1.5481
LeftShoulder1  -0.36372 4.44311 -32.5374
LeftArm  10.0091 -11.2574 -50.293
LeftForeArm  27.6824 -15.484 -7.70722
LeftHand  -0.0325409 7.32908 0.567908
RightShoulder  -1.08654 -6.36812 31.3842
RightArm  39.0983 -8.50425 37.5394
RightForeArm  4.67165 20.1541 5.48628
RightHand  -0.161875 2.52247 -2.58397
LeftUpLeg  -18.588 -3.91946 -0.375943
LeftLeg  25.7509 0.130269 0.368802
LeftFoot  -7.34833 0.0519199 -0.218708
LeftToes  2.52475e-009 -1.26109e-010 3.16044e-011
213
root  -82.2029 40.3944 -6.35363 2.0455 -10.0072 1.35959
RightUpLeg  -11.4738 -10.6379 -3.62909
RightLeg  16.0075 -0.858725 1.35294
RightFoot  -8.33774 -0.0658225 0.333696
RightToes  -3.0268e-009 0 -3.6325e-017
Spine  8.27388 -0.0997156 3.40123
Spine1  3.40664 -0.195498 1.39584
HEad  -13.8319 -0.463336 -1.98386
LeftShoulder1  -0.533567 4.86587 -33.0404
LeftArm  10.6624 -12.084 -48.8702
LeftForeArm  27.7859 -15.0408 -8.1013
LeftHand  -0.070714 9.92039 -0.418517
RightShoulder  -1.05958 -6.27971 31.6023
RightArm  38.9015 -9.81311 37.2518
RightForeArm  4.95803 19.1987 5.95367
RightHand  -0.145435 2.56456 -2.32901
LeftUpLeg  -18.299 -0.714364 -1.02973
LeftLeg  29.4156 -0.913893 -0.200282
LeftFoot  -7.83945 0.0562671 -0.299268
LeftToes  2.52475e-009 -1.26109e-010 3.16044e-011
214
root  -82.8916 40.3672 -6.63146 2.49536 -1.97723 1.16431
RightUpLeg  -10.4056 -10.961 -2.99328
RightLeg  14.9267 -9.57937 0.396576
RightFoot  -9.22336 -0.0553943 -0.352631
RightToes  -3.0268e-009 0 -3.6325e-017
Spine  6.8949 0.169697 2.73032
Spine1  4.44598 -0.16914 2.5736
HEad  -13.587 -2.5913 -2.57207
LeftShoulder1  -0.523659 4.84421 -32.9093
LeftArm  8.99234 -12.9947 -49.1161
LeftForeArm  28.4288 -14.7419 -8.09077
LeftHand  -0.0495381 10.2594 0.0798377
RightShoulder  -1.04677 -6.27829 31.1609
RightArm  35.6658 -11.6319 38.5822
RightForeArm  8.504 18.0747 6.26798
RightHand  -0.113326 2.54198 -1.87505
LeftUpLeg  -17.7216 1.03737 -1.52189
LeftLeg  32.5449 1.10048 1.10765
LeftFoot  -8.01321 0.0473435 0.0245088
LeftToes  2.52475e-009 -1.26109e-010 3.16044e-011
215
root  -83.5157 40.3869 -6.84113 2.56448 5.92549 0.962189
RightUpLeg  -9.43922 -11.2745 -2.69
RightLeg  14.8265 -16.6984 -0.142882
RightFoot  -9.41788 -0.055033 -0.523172
RightToes  -3.0268e-009 0 -3.6325e-017
Spine  6.53834 0.197335 3.34926
Spine1  4.54651 0.125353 1.84
HEad  -13.1428 -5.08347 -2.41177
LeftShoulder1  -0.481519 4.75913 -32.2392
LeftArm  10.3671 -13.0992 -49.503
LeftForeArm  25.7114 -15.8983 -7.52354
LeftHand  -0.014905 11.2691 0.905917
RightShoulder  -1.17997 -6.55023 32.1808
RightArm  36.2203 -12.6439 38.3131
RightForeArm  10.2926 17.9928 6.26921
RightHand  0.00130184 2.78984 -0.226911
LeftUpLeg  -16.2465 4.16701 -1.59121
LeftLeg  34.7301 3.66104 3.07193
LeftFoot  -7.94711 0.00486504 1.45086
LeftToes  2.52475e-009 -1.26109e-010 3.16044e-011
216
root  -84.1013 40.4332 -7.00594 2.80615 14.0892 1.24347
RightUpLeg  -9.17979 -12.4802 -2.99112
RightLeg  15.8909 -22.7202 -0.720335
RightFoot  -9.47127 -0.0503215 -0.845209
RightToes  -3.0268e-009 0 -3.6325e-017
Spine  6.34742 -0.00280088 2.83134
Spine1  4.45184 -0.0197906 1.80403
HEad  -12.8356 -7.26188 -2.28721
LeftShoulder1  -0.55152 4.94766 -32.0007
LeftArm  11.6316 -13.2879 -49.7088
LeftForeArm  23.515 -17.0492 -6.86489
LeftHand  -0.00299159 9.53536 1.28701
RightShoulder  -1.25686 -6.69943 32.7849
RightArm  37.464 -13.4639 38.8525
RightForeArm  8.32476 18.1696 6.35133
RightHand  -0.10105 2.06358 -1.71076
LeftUpLeg  -14.5248 6.69257 -1.8495
LeftLeg  35.676 6.06717 5.0114
LeftFoot  -7.87922 -0.0171292 2.13082
LeftToes  2.52475e-009 -1.26109e-010 3.16044e-011
217
root  -84.6639 40.4678 -7.12955 3.58578 21.7502 1.36572
RightUpLeg  -9.49105 -12.9658 -2.69871
RightLeg  16.6637 -29.2299 -1.88261
RightFoot  -9.41853 -0.0498373 -0.838358
RightToes  -3.0268e-009 0 -3.6325e-017
Spine  5.69871 0.00167719 1.7042
Spine1  4.29185 -0.31929 2.96611
HEad  -12.8239 -8.90329 -2.53234
LeftShoulder1  -0.659396 5.16751 -33.5083
LeftArm  14.7183 -13.463 -48.9184
LeftForeArm  20.7574 -18.9041 -5.91453
LeftHand  -0.000490384 10.5774 1.19967
RightShoulder  -1.1564 -6.49141 32.1605
RightArm  37.6572 -14.1208 39.6226
RightForeArm  7.58799 18.3184 6.31118
RightHand  -0.158918 2.95471 -2.42676
LeftUpLeg  -13.2429 9.43108 -1.86339
LeftLeg  35.6251 7.6881 6.22488
LeftFoot  -7.6915 -0.0357668 2.56323
LeftToes  2.52475e-009 -1.26109e-010 3.16044e-011
218
root  -85.0942 40.4603 -7.22982 3.92093 28.9192 1.57828
RightUpLeg  -9.41535 -14.5487 -2.82808
RightLeg  17.8847 -34.4227 -2.88131
RightFoot  -9.60009 -0.0471322 -1.16776
RightToes  -3.0268e-009 0 -3.6325e-017
Spine  5.05088 -0.184211 1.26903
Spine1  4.85455 -0.576523 3.19719
HEad  -13.0415 -9.3916 -1.56863
LeftShoulder1  -0.674468 5.15624 -34.6115
LeftArm  16.135 -13.1302 -48.1867
LeftForeArm  19.758 -20.4181 -5.0195
LeftHand  -0.0206579 9.0268 0.894633
RightShoulder  -1.12387 -6.42237 31.9465
RightArm  37.6596 -14.1711 40.0099
RightForeArm  7.93416 18.9883 5.89457
RightHand  -0.0684178 2.80741 -1.21049
LeftUpLeg  -10.8669 12.1807 -1.96119
LeftLeg  33.5609 8.7606 6.55437
LeftFoot  -7.04121 0.00314646 1.29614
LeftToes  2.52475e-009 -1.26109e-010 3.16044e-011
219
root  -85.3823 40.4665 -7.32763 4.12546 36.0639 1.61148
RightUpLeg  -8.99946 -16.5089 -3.09195
RightLeg  18.7334 -39.3478 -3.55607
RightFoot  -9.68583 -0.0533299 -0.852022
RightToes  -3.0268e-009 0 -3.6325e-017
Spine  4.19512 -0.405373 1.67218
Spine1  5.32883 -0.739931 2.83669
HEad  -12.789 -11.4945 -0.735254
LeftShoulder1  -0.733505 5.27979 -35.0599
LeftArm  17.0045 -12.8674 -48.4696
LeftForeArm  19.287 -20.7308 -4.8966
LeftHand  0.00466 8.8565 1.6369
RightShoulder  -1.08242 -6.3458 31.5266
RightArm  38.4147 -14.5933 40.0099
RightForeArm  7.68941 20.2142 5.33978
RightHand  -0.0584968 3.73431 -1.0092
LeftUpLeg  -7.62978 14.4288 -1.80765
LeftLeg  29.1443 8.4154 5.40566
LeftFoot  -7.06736 0.10392 -2.66241
LeftToes  2.52475e-009 -1.26109e-010 3.16044e-011
